<mxfile host="app.diagrams.net" modified="2021-12-13T19:14:35.360Z" agent="5.0 (Macintosh; Intel Mac OS X 10_15_7) AppleWebKit/537.36 (KHTML, like Gecko) Chrome/96.0.4664.93 Safari/537.36" etag="f88X6urA2Rffg3jYJt9m" version="15.9.4" type="github">
  <diagram id="kgpKYQtTHZ0yAKxKKP6v" name="Page-1">
    <mxGraphModel dx="949" dy="571" grid="1" gridSize="10" guides="1" tooltips="1" connect="1" arrows="1" fold="1" page="1" pageScale="1" pageWidth="850" pageHeight="1100" math="0" shadow="0">
      <root>
        <mxCell id="0" />
        <mxCell id="1" parent="0" />
        <mxCell id="3nuBFxr9cyL0pnOWT2aG-1" value=":Mobile Device" style="shape=umlLifeline;perimeter=lifelinePerimeter;container=1;collapsible=0;recursiveResize=0;rounded=0;shadow=0;strokeWidth=1;" parent="1" vertex="1">
          <mxGeometry x="179" y="80" width="100" height="800" as="geometry" />
        </mxCell>
        <mxCell id="3nuBFxr9cyL0pnOWT2aG-2" value="" style="points=[];perimeter=orthogonalPerimeter;rounded=0;shadow=0;strokeWidth=1;" parent="3nuBFxr9cyL0pnOWT2aG-1" vertex="1">
          <mxGeometry x="45" y="70" width="10" height="730" as="geometry" />
        </mxCell>
        <mxCell id="3nuBFxr9cyL0pnOWT2aG-3" value="Register" style="verticalAlign=bottom;startArrow=oval;endArrow=block;startSize=8;shadow=0;strokeWidth=1;" parent="3nuBFxr9cyL0pnOWT2aG-1" target="3nuBFxr9cyL0pnOWT2aG-2" edge="1">
          <mxGeometry relative="1" as="geometry">
            <mxPoint x="-15" y="70" as="sourcePoint" />
          </mxGeometry>
        </mxCell>
        <mxCell id="3nuBFxr9cyL0pnOWT2aG-4" value="" style="points=[];perimeter=orthogonalPerimeter;rounded=0;shadow=0;strokeWidth=1;" parent="3nuBFxr9cyL0pnOWT2aG-1" vertex="1">
          <mxGeometry x="50" y="232" width="10" height="80" as="geometry" />
        </mxCell>
        <mxCell id="C2U9HuYAeTP8XwX2KnLO-2" value="" style="html=1;points=[];perimeter=orthogonalPerimeter;" parent="3nuBFxr9cyL0pnOWT2aG-1" vertex="1">
          <mxGeometry x="40" y="352" width="10" height="80" as="geometry" />
        </mxCell>
        <mxCell id="C2U9HuYAeTP8XwX2KnLO-4" value="" style="html=1;points=[];perimeter=orthogonalPerimeter;" parent="3nuBFxr9cyL0pnOWT2aG-1" vertex="1">
          <mxGeometry x="39" y="71" width="10" height="80" as="geometry" />
        </mxCell>
        <mxCell id="C2U9HuYAeTP8XwX2KnLO-9" value="Login" style="verticalAlign=bottom;startArrow=oval;endArrow=block;startSize=8;shadow=0;strokeWidth=1;" parent="3nuBFxr9cyL0pnOWT2aG-1" edge="1">
          <mxGeometry relative="1" as="geometry">
            <mxPoint x="-11" y="352" as="sourcePoint" />
            <mxPoint x="49" y="352" as="targetPoint" />
          </mxGeometry>
        </mxCell>
        <mxCell id="orVg1k1KsBT4zMQbl33w-8" value="" style="html=1;points=[];perimeter=orthogonalPerimeter;" parent="3nuBFxr9cyL0pnOWT2aG-1" vertex="1">
          <mxGeometry x="40" y="700" width="10" height="60" as="geometry" />
        </mxCell>
        <mxCell id="3nuBFxr9cyL0pnOWT2aG-5" value=":Server" style="shape=umlLifeline;perimeter=lifelinePerimeter;container=1;collapsible=0;recursiveResize=0;rounded=0;shadow=0;strokeWidth=1;" parent="1" vertex="1">
          <mxGeometry x="519" y="80" width="100" height="810" as="geometry" />
        </mxCell>
        <mxCell id="3nuBFxr9cyL0pnOWT2aG-6" value="" style="points=[];perimeter=orthogonalPerimeter;rounded=0;shadow=0;strokeWidth=1;" parent="3nuBFxr9cyL0pnOWT2aG-5" vertex="1">
          <mxGeometry x="45" y="70" width="10" height="740" as="geometry" />
        </mxCell>
        <mxCell id="C2U9HuYAeTP8XwX2KnLO-3" value="" style="html=1;points=[];perimeter=orthogonalPerimeter;" parent="3nuBFxr9cyL0pnOWT2aG-5" vertex="1">
          <mxGeometry x="50" y="147" width="10" height="83" as="geometry" />
        </mxCell>
        <mxCell id="C2U9HuYAeTP8XwX2KnLO-14" value="" style="html=1;points=[];perimeter=orthogonalPerimeter;fontFamily=Helvetica;fontSize=12;fontColor=#000000;" parent="3nuBFxr9cyL0pnOWT2aG-5" vertex="1">
          <mxGeometry x="50" y="440" width="10" height="50" as="geometry" />
        </mxCell>
        <mxCell id="orVg1k1KsBT4zMQbl33w-3" value="" style="html=1;points=[];perimeter=orthogonalPerimeter;fontFamily=Helvetica;fontSize=12;fontColor=#000000;" parent="3nuBFxr9cyL0pnOWT2aG-5" vertex="1">
          <mxGeometry x="50" y="510" width="10" height="50" as="geometry" />
        </mxCell>
        <mxCell id="orVg1k1KsBT4zMQbl33w-4" value="" style="html=1;points=[];perimeter=orthogonalPerimeter;fontFamily=Helvetica;fontSize=12;fontColor=#000000;" parent="3nuBFxr9cyL0pnOWT2aG-5" vertex="1">
          <mxGeometry x="50" y="590" width="10" height="110" as="geometry" />
        </mxCell>
        <mxCell id="3nuBFxr9cyL0pnOWT2aG-8" value="h(ID), MPW) securely" style="verticalAlign=bottom;endArrow=block;entryX=0;entryY=0;shadow=0;strokeWidth=1;" parent="1" edge="1">
          <mxGeometry relative="1" as="geometry">
            <mxPoint x="234" y="229" as="sourcePoint" />
            <mxPoint x="564" y="229.00000000000023" as="targetPoint" />
            <Array as="points">
              <mxPoint x="409" y="229" />
            </Array>
          </mxGeometry>
        </mxCell>
        <mxCell id="3nuBFxr9cyL0pnOWT2aG-9" value="{Y,Msg}" style="verticalAlign=bottom;endArrow=block;entryX=1;entryY=0;shadow=0;strokeWidth=1;" parent="1" target="3nuBFxr9cyL0pnOWT2aG-4" edge="1">
          <mxGeometry relative="1" as="geometry">
            <mxPoint x="564" y="312" as="sourcePoint" />
          </mxGeometry>
        </mxCell>
        <mxCell id="C2U9HuYAeTP8XwX2KnLO-1" value="User" style="shape=umlActor;verticalLabelPosition=bottom;verticalAlign=top;html=1;outlineConnect=0;" parent="1" vertex="1">
          <mxGeometry x="140" y="80" width="20" height="36" as="geometry" />
        </mxCell>
        <mxCell id="C2U9HuYAeTP8XwX2KnLO-5" value="MPW = h(ID) || h(PW)&amp;nbsp;&lt;br&gt;Generate key-pair.&lt;br&gt;Embed into JWT. &lt;br&gt;Sign with private key" style="text;html=1;align=left;verticalAlign=middle;resizable=0;points=[];autosize=1;strokeColor=none;fillColor=none;" parent="1" vertex="1">
          <mxGeometry x="60" y="160" width="140" height="60" as="geometry" />
        </mxCell>
        <mxCell id="C2U9HuYAeTP8XwX2KnLO-7" value="Y =&amp;nbsp; h(ID)&lt;span id=&quot;docs-internal-guid-e49e2a0b-7fff-2932-c1dd-dcc5686d5943&quot;&gt;&lt;span style=&quot;background-color: rgb(255 , 255 , 255) ; vertical-align: baseline&quot;&gt;&lt;font style=&quot;font-size: 14px&quot;&gt;⊕&lt;/font&gt;&lt;/span&gt;&lt;/span&gt;salt &lt;br&gt;x= h( h(ID) || salt)&lt;br&gt;Generate Uid&lt;br&gt;Msg = Ex ( h(Uid) || salt))&lt;br&gt;Store h(Uid), h( ID), h(MPW), public key from JWS&amp;nbsp; securely&lt;br&gt;Send ( {Y, Msg} )" style="text;html=1;align=left;verticalAlign=middle;resizable=0;points=[];autosize=1;strokeColor=none;fillColor=none;" parent="1" vertex="1">
          <mxGeometry x="600" y="220" width="330" height="90" as="geometry" />
        </mxCell>
        <mxCell id="C2U9HuYAeTP8XwX2KnLO-8" value="&lt;div style=&quot;text-align: left&quot;&gt;&lt;span&gt;salt = Y&lt;/span&gt;&lt;span style=&quot;font-size: 14px ; background-color: rgb(255 , 255 , 255)&quot;&gt;⊕ &lt;/span&gt;&lt;span style=&quot;background-color: rgb(255 , 255 , 255)&quot;&gt;h(ID)&lt;/span&gt;&lt;/div&gt;&lt;span style=&quot;background-color: rgb(255 , 255 , 255)&quot;&gt;&lt;div style=&quot;text-align: left&quot;&gt;x = h( h(ID) || salt)&lt;/div&gt;&lt;font style=&quot;font-size: 12px&quot;&gt;&lt;div style=&quot;text-align: left&quot;&gt;Dx(Msg) = &lt;span&gt;(h(Uid) || salt)&lt;/span&gt;&lt;/div&gt;&lt;/font&gt;&lt;/span&gt;&lt;span style=&quot;background-color: rgb(255 , 255 , 255)&quot;&gt;&lt;div style=&quot;text-align: left&quot;&gt;Store h(Uid) securely&lt;/div&gt;&lt;/span&gt;" style="text;html=1;align=center;verticalAlign=middle;resizable=0;points=[];autosize=1;strokeColor=none;fillColor=none;" parent="1" vertex="1">
          <mxGeometry x="55" y="320" width="150" height="60" as="geometry" />
        </mxCell>
        <mxCell id="C2U9HuYAeTP8XwX2KnLO-10" value="MPW = h (ID) || h(PW)&lt;br&gt;D = h(h(ID) || h(MPW) || N1)&lt;br&gt;x= h(h(ID)|| h(Uid))&lt;br&gt;P = Ex( D,attributes,h(ID),N1,t1)&lt;br&gt;Send {h(ID), P, D,t1}&lt;br&gt;Embed into JWS" style="text;html=1;align=left;verticalAlign=middle;resizable=0;points=[];autosize=1;strokeColor=none;fillColor=none;fontSize=12;fontFamily=Helvetica;fontColor=#000000;" parent="1" vertex="1">
          <mxGeometry y="425" width="190" height="90" as="geometry" />
        </mxCell>
        <mxCell id="C2U9HuYAeTP8XwX2KnLO-12" value="" style="endArrow=classic;html=1;rounded=0;fontFamily=Helvetica;fontSize=12;fontColor=#000000;" parent="1" edge="1">
          <mxGeometry width="50" height="50" relative="1" as="geometry">
            <mxPoint x="236" y="513" as="sourcePoint" />
            <mxPoint x="564" y="513" as="targetPoint" />
          </mxGeometry>
        </mxCell>
        <mxCell id="C2U9HuYAeTP8XwX2KnLO-13" value="{h(ID), P, D ,t1}" style="text;html=1;align=center;verticalAlign=middle;resizable=0;points=[];autosize=1;strokeColor=none;fillColor=none;fontSize=12;fontFamily=Helvetica;fontColor=#000000;" parent="1" vertex="1">
          <mxGeometry x="353" y="490" width="100" height="20" as="geometry" />
        </mxCell>
        <mxCell id="C2U9HuYAeTP8XwX2KnLO-15" value="&lt;div style=&quot;text-align: left&quot;&gt;&lt;span&gt;Check if JWS public key matches stored public key. If not reject.&lt;br&gt;Look up h(Uid) using h(ID), extract N1 from D&lt;/span&gt;&lt;/div&gt;&lt;div style=&quot;text-align: left&quot;&gt;&lt;span&gt;Validate h(ID) and h(MPW) against storage&lt;/span&gt;&lt;/div&gt;" style="text;html=1;align=center;verticalAlign=middle;resizable=0;points=[];autosize=1;strokeColor=none;fillColor=none;fontSize=12;fontFamily=Helvetica;fontColor=#000000;" parent="1" vertex="1">
          <mxGeometry x="600" y="520" width="350" height="50" as="geometry" />
        </mxCell>
        <mxCell id="orVg1k1KsBT4zMQbl33w-1" value="G = h( h(ID) || h(Uid))&lt;br&gt;K= G&amp;nbsp;&lt;span style=&quot;font-size: 14px ; background-color: rgb(255 , 255 , 255)&quot;&gt;⊕&amp;nbsp;&lt;/span&gt;&lt;span style=&quot;background-color: rgb(255 , 255 , 255)&quot;&gt;N1&lt;/span&gt;&lt;span style=&quot;font-size: 14px ; background-color: rgb(255 , 255 , 255)&quot;&gt;&amp;nbsp;&lt;/span&gt;&lt;span style=&quot;font-size: 14px ; background-color: rgb(255 , 255 , 255)&quot;&gt;⊕&amp;nbsp;&lt;/span&gt;&lt;span style=&quot;background-color: rgb(255 , 255 , 255)&quot;&gt;N2&lt;br&gt;L = h( DID || N1 || G)&lt;br&gt;M = h( G || N1)&lt;br&gt;N = h( D || M || N2)&lt;br&gt;SK = h( D || G || K)&lt;br&gt;Send EL(N,K)&lt;/span&gt;" style="text;html=1;align=left;verticalAlign=middle;resizable=0;points=[];autosize=1;strokeColor=none;fillColor=none;" parent="1" vertex="1">
          <mxGeometry x="600" y="670" width="130" height="100" as="geometry" />
        </mxCell>
        <mxCell id="orVg1k1KsBT4zMQbl33w-2" value="x&#39;= h(h(ID)|| h(Uid))&lt;br&gt;Decrypt (E)&lt;br&gt;Validate variance of attributes." style="text;html=1;align=left;verticalAlign=middle;resizable=0;points=[];autosize=1;strokeColor=none;fillColor=none;" parent="1" vertex="1">
          <mxGeometry x="600" y="590" width="180" height="50" as="geometry" />
        </mxCell>
        <mxCell id="orVg1k1KsBT4zMQbl33w-5" value="" style="endArrow=classic;html=1;rounded=0;" parent="1" edge="1">
          <mxGeometry width="50" height="50" relative="1" as="geometry">
            <mxPoint x="565.5" y="778" as="sourcePoint" />
            <mxPoint x="234.5" y="778" as="targetPoint" />
          </mxGeometry>
        </mxCell>
        <mxCell id="orVg1k1KsBT4zMQbl33w-6" value="EL{N,K}" style="text;html=1;align=center;verticalAlign=middle;resizable=0;points=[];autosize=1;strokeColor=none;fillColor=none;" parent="1" vertex="1">
          <mxGeometry x="373" y="760" width="60" height="20" as="geometry" />
        </mxCell>
        <mxCell id="orVg1k1KsBT4zMQbl33w-7" value="&lt;div style=&quot;text-align: left&quot;&gt;&lt;span&gt;Calculate N2 = K&amp;nbsp;&lt;/span&gt;&lt;span style=&quot;font-size: 14px ; background-color: rgb(255 , 255 , 255)&quot;&gt;⊕&amp;nbsp;&lt;/span&gt;&lt;span&gt;G&amp;nbsp;&lt;/span&gt;&lt;span style=&quot;font-size: 14px ; background-color: rgb(255 , 255 , 255)&quot;&gt;⊕&amp;nbsp;&lt;/span&gt;&lt;span style=&quot;background-color: rgb(255 , 255 , 255)&quot;&gt;N1&lt;/span&gt;&lt;/div&gt;&lt;div style=&quot;text-align: left&quot;&gt;&lt;span&gt;Compare N&#39; to N. If not reject.&lt;/span&gt;&lt;/div&gt;&lt;div style=&quot;text-align: left&quot;&gt;&lt;span&gt;Calculate SK = h( D || G || K)&lt;/span&gt;&lt;/div&gt;&lt;div style=&quot;text-align: left&quot;&gt;&lt;span&gt;Hold SK in-memory&lt;/span&gt;&lt;/div&gt;" style="text;html=1;align=center;verticalAlign=middle;resizable=0;points=[];autosize=1;strokeColor=none;fillColor=none;" parent="1" vertex="1">
          <mxGeometry x="38" y="780" width="170" height="60" as="geometry" />
        </mxCell>
      </root>
    </mxGraphModel>
  </diagram>
</mxfile>
